<svg width="51" height="81" viewBox="0 0 51 81" fill="none" xmlns="http://www.w3.org/2000/svg">
<path d="M48.7508 39.992C41.1272 38.5852 28.0869 31.5514 27.6857 2.00965C27.6857 1.47666 27.4743 0.9655 27.0981 0.588618C26.7219 0.211736 26.2116 0 25.6795 0C25.1474 0 24.6371 0.211736 24.2609 0.588618C23.8847 0.9655 23.6733 1.47666 23.6733 2.00965C24.0745 35.5707 8.62683 37.9823 2.00638 39.1881C1.45653 39.2384 0.945475 39.4933 0.57407 39.9025C0.202665 40.3118 -0.00210119 40.8456 0.000184657 41.3987C-0.0072793 42.0273 0.211751 42.6375 0.617099 43.1173C1.02245 43.5972 1.58694 43.9146 2.207 44.0113C9.42931 45.0161 24.6764 48.0306 25.0776 78.7782C25.046 79.0762 25.0814 79.3776 25.1811 79.6602C25.2809 79.9428 25.4424 80.1994 25.654 80.4114C25.8656 80.6233 26.1218 80.7852 26.4039 80.8851C26.6861 80.985 26.9869 81.0204 27.2845 80.9888C27.5919 80.99 27.8963 80.9269 28.178 80.8035C28.4597 80.68 28.7126 80.499 28.9204 80.2719C29.1281 80.0449 29.2863 79.7768 29.3846 79.485C29.4829 79.1931 29.5192 78.8839 29.4913 78.5772C29.09 47.8296 42.1303 46.2219 49.152 44.6142C49.444 44.5659 49.7234 44.4594 49.9734 44.3009C50.2235 44.1423 50.4392 43.935 50.6076 43.6913C50.7761 43.4475 50.8939 43.1723 50.954 42.8821C51.0141 42.5918 51.0153 42.2924 50.9576 42.0016C50.839 41.4808 50.5638 41.009 50.1692 40.6496C49.7747 40.2903 49.2796 40.0608 48.7508 39.992Z" fill="#FFE75C"/>
</svg>
